<svg
  id="visual"
  viewBox="0 0 960 540"
  width="960"
  height="540"
  xmlns="http://www.w3.org/2000/svg"
  xmlns:xlink="http://www.w3.org/1999/xlink"
  version="1.1"
><rect x="0" y="0" width="960" height="540" fill="#121212" /><g
    fill="none"
    stroke="#be004c"
    stroke-width="2"
  ><circle r="38" cx="644" cy="248" /><circle r="8" cx="627" cy="442" /><circle
      r="17"
      cx="186"
      cy="413"
    /><circle r="26" cx="407" cy="175" /><circle
      r="27"
      cx="887"
      cy="226"
    /><circle r="22" cx="94" cy="320" /><circle
      r="14"
      cx="718"
      cy="161"
    /><circle r="16" cx="933" cy="397" /><circle
      r="18"
      cx="541"
      cy="155"
    /><circle r="24" cx="379" cy="33" /><circle
      r="28"
      cx="351"
      cy="363"
    /><circle r="35" cx="259" cy="508" /><circle
      r="19"
      cx="883"
      cy="65"
    /><circle r="12" cx="287" cy="193" /><circle
      r="20"
      cx="290"
      cy="21"
    /><circle r="8" cx="120" cy="45" /><circle
      r="20"
      cx="779"
      cy="393"
    /><circle r="17" cx="147" cy="242" /><circle
      r="22"
      cx="108"
      cy="430"
    /></g></svg>
