<svg
  id="visual"
  viewBox="0 0 960 540"
  width="960"
  height="540"
  xmlns="http://www.w3.org/2000/svg"
  xmlns:xlink="http://www.w3.org/1999/xlink"
  version="1.1"
><rect x="0" y="0" width="960" height="540" fill="#121212" /><g
    fill="none"
    stroke="#be004c"
    stroke-width="2"
  ><circle r="38" cx="432" cy="36" /><circle r="8" cx="332" cy="71" /><circle
      r="27"
      cx="810"
      cy="462"
    /><circle r="28" cx="129" cy="266" /><circle
      r="15"
      cx="811"
      cy="99"
    /><circle r="7" cx="599" cy="201" /><circle
      r="31"
      cx="394"
      cy="306"
    /><circle r="17" cx="444" cy="216" /><circle
      r="16"
      cx="240"
      cy="301"
    /><circle r="9" cx="908" cy="8" /><circle r="12" cx="640" cy="330" /><circle
      r="8"
      cx="230"
      cy="454"
    /><circle r="36" cx="894" cy="365" /><circle
      r="29"
      cx="222"
      cy="43"
    /><circle r="13" cx="854" cy="255" /><circle
      r="20"
      cx="522"
      cy="445"
    /><circle r="14" cx="66" cy="139" /><circle
      r="14"
      cx="158"
      cy="164"
    /><circle r="27" cx="324" cy="375" /></g></svg>
